<?xml version="1.0" encoding="UTF-8"?>
<!-- Uploaded to: SVG Find, www.svgrepo.com, Generator: SVG Find Mixer Tools -->
<svg fill="#000000" width="800px" height="800px" version="1.1" viewBox="144 144 512 512" xmlns="http://www.w3.org/2000/svg">
 <path d="m298.4 403.68c-0.15625 10.77 4.1719 20.793 11.594 27.957l2.7539 0.91797c8.9883 2.9922 15.516 10.664 17.039 20.016 1.5156 9.3594-2.2539 18.703-9.8281 24.395l-4.625 3.4766v114.3c0 4.6758-3.7891 8.4648-8.4648 8.4648-4.6758 0-8.4688-3.7891-8.4688-8.4648v-118.54c0-2.6641 1.2539-5.1797 3.3867-6.7695l8.0156-6.0156c2.5625-1.9258 3.7891-4.9609 3.2812-8.125-0.089843-0.52734-0.28125-1.0078-0.45312-1.4961-0.86328-2.4336-2.6953-4.3359-5.2227-5.1758l-6.0508-2.0156-10.086-3.3672c-8.7109 6.2227-16.766 13.504-18.242 16.594 0.16797 2.5273 1.2852 7.8203 2.3672 12.953 2.5625 12.141 6.0742 28.758 6.0742 45.75v76.203c0 4.6758-3.7891 8.4648-8.4648 8.4648-4.6758 0-8.4688-3.7891-8.4688-8.4648v-76.199c0-15.227-3.3008-30.844-5.707-42.246-1.6016-7.5703-2.7617-13.039-2.7617-17.023 0-10.742 15.863-23.574 29.172-32.445 0.27734-0.17969 0.57812-0.29687 0.87109-0.44922-3.0977-7.0742-4.75-14.855-4.6367-22.938 0.40234-28.328 23.723-52.617 51.988-54.148 12.539-0.71094 24.484 2.7539 34.648 9.9062 3.8242 2.6836 4.7422 7.9688 2.0508 11.789-2.6914 3.8242-7.9648 4.7344-11.801 2.0508-7.0195-4.9375-15.25-7.3203-23.98-6.8359-19.559 1.0508-35.695 17.867-35.98 37.48zm176.15-45.488c0.24609-4.6719-3.3398-8.6602-8-8.9141-12.043-0.55469-23.641 2.5273-33.578 9.1797-3.8906 2.5938-4.9375 7.8555-2.332 11.738 1.6289 2.4453 4.3086 3.7617 7.0469 3.7617 1.6211 0 3.25-0.46484 4.6953-1.4297 6.8789-4.5898 14.973-6.8203 23.254-6.332 4.6055 0.28516 8.6562-3.332 8.9141-8.0039zm-201.55-104.29v-48.633c0-0.097657 0.023438-0.1875 0.023438-0.28906 0.011718-0.30859 0.050781-0.60547 0.089843-0.90625 0.035157-0.26172 0.070313-0.52344 0.13672-0.78516 0.058594-0.26172 0.15234-0.50781 0.23828-0.75391 0.097657-0.28906 0.20312-0.57031 0.32812-0.85156 0.039063-0.089843 0.058594-0.17969 0.10547-0.26562 0.070313-0.14453 0.17578-0.26172 0.25781-0.40234 0.15234-0.25781 0.3125-0.51562 0.48828-0.75391 0.16016-0.21484 0.33203-0.42188 0.51562-0.625 0.17969-0.20703 0.37109-0.39844 0.57031-0.58594 0.20312-0.1875 0.41797-0.35938 0.63672-0.52344 0.21484-0.16016 0.4375-0.31641 0.67188-0.45703 0.22656-0.14062 0.45703-0.26172 0.69922-0.37891 0.25-0.125 0.50781-0.23828 0.76953-0.33594 0.25-0.089844 0.50391-0.16797 0.76172-0.23828 0.26562-0.070313 0.53516-0.13281 0.80469-0.17578 0.28906-0.046875 0.58594-0.070313 0.88281-0.089844 0.16016-0.011719 0.31641-0.050781 0.48438-0.050781 0.10156 0 0.19141 0.023437 0.28906 0.023437 0.30078 0.011719 0.59375 0.050782 0.88672 0.089844 0.27344 0.039062 0.53906 0.070312 0.8125 0.14062 0.25 0.058594 0.48828 0.14453 0.73047 0.22656 0.29688 0.10156 0.58984 0.20703 0.875 0.34375 0.085937 0.039062 0.17188 0.054687 0.25781 0.097656 4.6445 2.3711 24.641 7.543 34.434 7.543 34.816 0 60.504-7.9922 60.758-8.0703 0.13672-0.039062 0.27344-0.050781 0.40625-0.085938 0.27734-0.074218 0.55469-0.13281 0.82813-0.17578 0.31641-0.050781 0.63672-0.082031 0.96094-0.097656 0.12109-0.003906 0.23828-0.035156 0.36328-0.035156 0.10938 0 0.20703 0.023437 0.3125 0.03125 0.33594 0.015625 0.67188 0.050781 0.99609 0.10156 0.23828 0.039063 0.47266 0.074219 0.70703 0.13672 0.28125 0.070312 0.55078 0.15625 0.81641 0.25781 0.26172 0.089844 0.51953 0.19141 0.76953 0.3125 0.22266 0.10547 0.4375 0.23047 0.64844 0.35156 0.26172 0.15625 0.51953 0.3125 0.76172 0.49219 0.1875 0.14063 0.35938 0.28906 0.53516 0.4375 0.23828 0.20703 0.46484 0.42188 0.67969 0.65625 0.15234 0.16797 0.29297 0.34375 0.42969 0.51953 0.20312 0.25781 0.39453 0.52734 0.5625 0.8125 0.10938 0.17969 0.20703 0.36719 0.30859 0.55859 0.15625 0.3125 0.29688 0.63672 0.41797 0.97266 0.035156 0.097656 0.089843 0.17969 0.12109 0.28125 0.035157 0.10938 0.039063 0.22656 0.070313 0.33594 0.089844 0.32422 0.15625 0.64844 0.20703 0.97266 0.039063 0.25781 0.066406 0.51953 0.082032 0.78516 0.011718 0.15625 0.046874 0.29688 0.046874 0.45703v58.738c0 4.9609 3.7969 8.9922 8.4688 8.9922 4.6641 0 8.4648-4.0352 8.4648-8.9922v-58.738c0-0.14453 0.035156-0.28906 0.046875-0.42969 0.015625-0.28906 0.039063-0.5625 0.085938-0.83984 0.046875-0.30078 0.10547-0.60547 0.1875-0.90625 0.035156-0.125 0.039062-0.25 0.082031-0.37109 0.035156-0.10547 0.097656-0.20312 0.13281-0.30859 0.12109-0.32422 0.25-0.62891 0.40234-0.92578 0.10156-0.19531 0.20312-0.39453 0.3125-0.57812 0.17188-0.27734 0.35938-0.54297 0.55469-0.79688 0.14062-0.17969 0.28906-0.36328 0.44141-0.53516 0.20703-0.22266 0.42188-0.42969 0.64844-0.62891 0.1875-0.16797 0.37109-0.32812 0.57422-0.47266 0.22266-0.16797 0.45703-0.3125 0.69922-0.45312 0.23828-0.14062 0.47266-0.27344 0.72656-0.39453 0.22266-0.10547 0.45312-0.19141 0.68359-0.27734 0.29297-0.10547 0.59375-0.20703 0.90234-0.28125 0.20703-0.050781 0.41797-0.085937 0.62891-0.12109 0.34766-0.054687 0.69922-0.097656 1.0625-0.10547 0.10156 0 0.19141-0.03125 0.29297-0.03125 0.11719 0 0.22656 0.03125 0.34375 0.035156 0.33203 0.015625 0.66016 0.050781 0.98828 0.10156 0.27344 0.046876 0.54297 0.10156 0.82031 0.17578 0.14062 0.039062 0.27734 0.046875 0.41406 0.089844 0.24609 0.082031 25.941 8.0703 60.754 8.0703 9.7891 0 29.789-5.168 34.43-7.543 0.085938-0.039062 0.17578-0.058593 0.26562-0.10156 0.27344-0.13281 0.55859-0.23047 0.83594-0.32812 0.26172-0.089844 0.51953-0.17969 0.78516-0.24219 0.24609-0.058594 0.49219-0.089844 0.73438-0.125 0.31641-0.046875 0.64062-0.089844 0.96094-0.097656 0.089844-0.003906 0.17188-0.023438 0.26172-0.023438 0.14453 0 0.28906 0.035157 0.43359 0.046876 0.32422 0.015624 0.64062 0.046874 0.95312 0.097656 0.25781 0.039062 0.50391 0.10156 0.75391 0.16797 0.27344 0.070313 0.53906 0.15234 0.80078 0.24609 0.25781 0.097656 0.50781 0.20703 0.75391 0.32812 0.24219 0.11719 0.48047 0.24219 0.71094 0.38281s0.45312 0.29688 0.67188 0.46484c0.21484 0.16016 0.42969 0.33203 0.62891 0.51953 0.20703 0.1875 0.39844 0.38672 0.58594 0.59375 0.17578 0.19531 0.34766 0.39844 0.50391 0.60938 0.17578 0.24219 0.34375 0.5 0.49219 0.76562 0.082032 0.13672 0.17969 0.25 0.25781 0.39453 0.046875 0.085938 0.058594 0.17578 0.10156 0.26172 0.13281 0.28906 0.23828 0.57031 0.33594 0.86328 0.082031 0.24609 0.17188 0.49219 0.23047 0.75 0.066406 0.26172 0.10156 0.52734 0.13672 0.79688 0.039063 0.29297 0.082032 0.58984 0.089844 0.89062 0.003906 0.10156 0.023438 0.19141 0.023438 0.29297v14.766l-0.003906 33.836c0 12.586-6.918 24.254-17.617 29.719-8.2109 4.1914-18.012 6.3164-29.129 6.3164-22.449 0-41.934-11.332-54.914-24.625-0.67188 13.688-11.758 24.625-25.336 24.625-13.574 0-24.668-10.938-25.336-24.625-12.988 13.297-32.469 24.625-54.914 24.625-11.117 0-20.922-2.125-29.125-6.3164-10.707-5.4648-17.621-17.129-17.621-29.719zm101.54-19.117c-13.168 11.836-32.828 21.281-54.789 21.281-11.117 0-20.922-2.125-29.125-6.3125-0.23828-0.12109-0.45703-0.26172-0.69141-0.38672v4.5352c0 6.293 3.293 12.031 8.3867 14.637 5.8047 2.957 13.012 4.4648 21.426 4.4648 30.551 0.003906 53.469-28.188 54.793-38.219zm135.53 14.586c-0.23047 0.125-0.45312 0.26172-0.68359 0.38281-8.2109 4.1914-18.012 6.3125-29.129 6.3125-21.961 0-41.613-9.4453-54.789-21.281 1.3164 10.027 24.234 38.215 54.789 38.215 8.418 0 15.629-1.5078 21.422-4.4648 5.1055-2.6055 8.3945-8.3438 8.3945-14.637zm-77.824-31.734c8.9414 10.078 26.082 21.504 48.008 21.504 8.418 0 15.629-1.5078 21.422-4.4648 5.1055-2.6055 8.3945-8.3438 8.3945-14.637v-2.9062c-9.5273 2.6641-21.703 5.0742-29.816 5.0742-19.586-0.003907-36.293-2.3086-48.008-4.5703zm-112.5 4.5664c-8.1133 0-20.289-2.4102-29.816-5.0742v2.9062c0 6.293 3.293 12.031 8.3867 14.637 5.8047 2.957 13.012 4.4648 21.426 4.4648 21.926 0 39.066-11.426 48.008-21.504-11.707 2.2617-28.414 4.5703-48.004 4.5703zm196.25 88.059-25.402 33.867c-1.9258 2.5625-2.2305 5.9961-0.80469 8.8633 1.4414 2.8672 4.3672 4.6797 7.5781 4.6797h8.4648l-15.242 20.324c-2.8125 3.7383-2.0508 9.043 1.6992 11.848 1.5234 1.1445 3.3008 1.6992 5.0664 1.6992 2.5781 0 5.1172-1.168 6.7812-3.3906l25.398-33.867c1.9258-2.5625 2.2305-5.9961 0.80469-8.8633-1.4414-2.8711-4.3672-4.6797-7.5781-4.6797h-8.4648l15.234-20.324c2.8125-3.7383 2.0508-9.043-1.6914-11.848-3.7344-2.8047-9.043-2.0547-11.844 1.6914zm-154.09 191.35c-4.6719 0-8.4688-3.793-8.4688-8.4688 0-4.6758-3.7891-8.4648-8.4648-8.4648s-8.4688 3.7891-8.4688 8.4648c0 14.008 11.395 25.402 25.402 25.402 4.6758 0 8.4648-3.7891 8.4648-8.4688-0.003907-4.6797-3.793-8.4648-8.4648-8.4648zm93.133-16.938c-4.6797 0-8.4688 3.7891-8.4688 8.4648 0 4.6758-3.793 8.4688-8.4648 8.4688-4.6797 0-8.4688 3.7891-8.4688 8.4688 0 4.6797 3.7891 8.4688 8.4688 8.4688 14.008 0 25.402-11.395 25.402-25.402 0-4.6797-3.7891-8.4688-8.4688-8.4688zm72.043 30.062c-0.03125 0-0.050781-0.003906-0.074219-0.003906-4.6562 0-8.4648 3.8125-8.4648 8.4648 0 4.6562 3.8086 8.4688 8.4648 8.4688s8.4688-3.8125 8.4688-8.4688c-0.003906-4.6289-3.7734-8.418-8.3945-8.4609zm11.434-67.824-0.58984-0.67578c-4.9922-5.7539-12.781-12.277-22.605-19.051-0.25781-0.17578-0.51562-0.34375-0.59375-0.34375-0.27344-0.1875-0.58594-0.30859-0.875-0.45312 1.8047-4.0742 3.1328-8.3789 3.8945-12.844 0.78516-4.6133-2.3125-8.9766-6.918-9.7656-4.5898-0.78906-8.9844 2.3125-9.7656 6.9219-1.3711 8.0273-5.3555 15.355-11.105 20.922l-2.6641 0.88672c-10.5 3.4727-17.523 13.203-17.438 24.215 0 7.875 3.8125 15.496 10.16 20.234l4.6562 3.4766v114.3c0 4.6484 3.8125 8.4648 8.4688 8.4648s8.4688-3.8125 8.4688-8.4648v-0.085938-118.45c0-2.6289-1.2734-5.168-3.3906-6.7695l-8.0469-6.0156c-2.2031-1.6914-3.3008-3.8945-3.3867-6.6914 0.019531-1.0195 0.19531-1.9805 0.49219-2.8633 0.83594-2.4922 2.6992-4.3945 5.2656-5.2656l5.9805-1.9766 10.191-3.3672c2.1953 1.5312 5.4141 3.9883 8.6289 6.6094 3.2227 2.7109 6.0117 5.332 7.7031 7.3672 0.93359 1.0117 1.5312 2.0312 1.8672 2.5352 0 0.082031 0.082032 0.082031 0.082032 0.082031-0.17188 2.0352-1.0977 6.5234-2.2891 12.277-0.92578 4.7461-2.1172 10.082-3.1328 15.836-0.42187 2.2891 0.089844 4.4883 1.3555 6.3477 1.3555 1.8633 3.3086 3.1328 5.5078 3.5586 0.050781 0.011719 0.10156 0.003907 0.15234 0.011719 4.4375 0.66406 8.832-2.4219 9.6719-6.8633 0.92578-5.25 1.9453-10.082 2.7969-14.312 1.5234-6.8516 2.793-12.699 2.875-17.438-0.25-5.8398-2.8711-9.1406-5.418-12.359zm-11.512 101.77c-4.6562 0-8.4648 3.8125-8.4648 8.4648v37.598c0 4.6484 3.8086 8.4648 8.4648 8.4648s8.4688-3.8125 8.4688-8.4648v-37.598c0-4.6484-3.8164-8.4648-8.4688-8.4648zm-127-51.309c-32.684 0-59.27-26.59-59.27-59.262 0-32.676 26.586-59.27 59.27-59.27 32.676 0 59.27 26.59 59.27 59.27-0.003906 32.672-26.594 59.262-59.27 59.262zm42.332-59.262c0-23.34-18.992-42.336-42.336-42.336-23.34 0-42.336 18.992-42.336 42.336 0 23.34 18.992 42.336 42.336 42.336s42.336-19 42.336-42.336zm-16.93 0c0 14.008-11.395 25.398-25.402 25.398s-25.402-11.395-25.402-25.398c0-14.008 11.395-25.402 25.402-25.402 14.004 0 25.402 11.398 25.402 25.402zm-16.934 0c0-4.6719-3.7969-8.4688-8.4648-8.4688-4.6719 0-8.4688 3.7969-8.4688 8.4688 0 4.6719 3.7969 8.4648 8.4688 8.4648 4.6602 0 8.4648-3.8008 8.4648-8.4648zm-33.871-131.24v33.867c0 4.6797 3.7891 8.4688 8.4688 8.4688 4.6758 0 8.4648-3.7852 8.4648-8.4688v-33.867c0-4.6797-3.7891-8.4648-8.4648-8.4648-4.6758-0.003907-8.4688 3.7852-8.4688 8.4648zm42.332-8.4688c-4.6797 0-8.4688 3.7852-8.4688 8.4648v33.867c0 4.6797 3.7891 8.4688 8.4688 8.4688 4.6797 0 8.4688-3.7852 8.4688-8.4688v-33.867c0.003906-4.6758-3.7852-8.4648-8.4688-8.4648z"/>
</svg>