<?xml version="1.0" encoding="UTF-8"?>
<!-- Uploaded to: SVG Find, www.svgrepo.com, Generator: SVG Find Mixer Tools -->
<svg fill="#000000" width="800px" height="800px" version="1.1" viewBox="144 144 512 512" xmlns="http://www.w3.org/2000/svg">
 <path d="m521.2 448.42v-54.996c1.4102-3.2148 2.4961-6.6367 3.0117-10.262 1.0547-7.4219-0.089844-14.715-3.0117-21.012v-49.727c0-60.426-49.16-109.59-109.59-109.59h-23.23c-60.426 0-109.59 49.164-109.59 109.59v49.73c-2.918 6.2969-4.0625 13.586-3.0078 21.008 0.51562 3.625 1.6016 7.0391 3.0078 10.254v55.004c0 2.7852 2.2539 5.0391 5.0391 5.0391h49.457l-10.891 46.137c-0.11719 0.5-0.16016 1.0039-0.20313 1.5078-28.387 21.176-45.859 54.895-45.859 91.023 0 2.7852 2.2539 5.0391 5.0391 5.0391h237.25c2.7852 0 5.0391-2.2539 5.0391-5.0391 0-36.129-17.469-69.848-45.855-91.023-0.042969-0.5-0.085938-1.0039-0.20313-1.5039l-10.895-46.145h49.457c2.7852 0 5.0391-2.2539 5.0391-5.0352zm-232.34-136c0-54.871 44.641-99.516 99.516-99.516h23.23c54.871 0 99.512 44.641 99.512 99.516v37.543c-2.9609-1.9375-6.2539-3.2305-9.7812-3.7344-1.7617-0.24609-3.5156-0.26953-5.2422-0.125-0.40234-6.5312-1.3477-13.133-2.8789-19.996-0.5-2.2773-2.5039-3.9023-4.832-3.9453-34.852-0.56641-66.336-16.734-84.223-43.238-0.93359-1.3906-2.5039-2.2227-4.1758-2.2227-1.6719 0-3.2383 0.83203-4.1758 2.2188-17.887 26.508-49.371 42.672-84.219 43.242-2.3281 0.039062-4.3281 1.668-4.8359 3.9453-1.5312 6.8672-2.4727 13.465-2.875 20-1.7266-0.14453-3.4766-0.125-5.2422 0.12109-3.5312 0.5-6.8242 1.793-9.7852 3.7344zm197.4 40.898c0 53.645-36.895 113.64-86.266 113.64-49.375 0-86.266-59.996-86.266-113.64 0-6.9609 0.67969-13.934 2.0781-21.207 33.98-1.6484 64.746-16.98 84.188-41.809 19.438 24.832 50.207 40.16 84.188 41.809 1.3945 7.2734 2.0781 14.25 2.0781 21.207zm-197.37 10.953c2.7148-4.5625 6.6836-7.4258 11.172-8.0625 0.64844-0.09375 1.2891-0.13672 1.9297-0.13672 0.58203 0 1.1484 0.13672 1.7227 0.20703 0.34375 14.668 3.2383 29.676 8.2578 43.926-1.6641 1.0352-3.4492 1.7891-5.3633 2.0586-4.4766 0.66797-9.0938-1.0039-12.977-4.625-4.1758-3.9062-6.9766-9.5508-7.875-15.902-0.90234-6.3477 0.20703-12.551 3.1328-17.465zm-0.027343 79.105v-36.715c4.7773 3.7422 10.199 5.8242 15.785 5.8242 1.125 0 2.2539-0.082032 3.3789-0.24219 2.7109-0.38672 5.2852-1.2383 7.6758-2.4844 5.2227 12.125 12 23.449 20.047 33.23l-0.089844 0.38672zm184.46 66.969c23.656 18.344 38.637 46.383 40.133 76.734h-226.92c1.5-30.348 16.477-58.391 40.133-76.734 1 0.66016 2.1016 1.1641 3.3008 1.4375 22.906 5.1953 46.461 7.793 70.027 7.793 23.559 0 47.125-2.5977 70.031-7.793 1.1992-0.27344 2.3008-0.77734 3.2969-1.4375zm-5.5586-8.3828c-44.34 10.051-91.211 10.051-135.56-0.058594l11.785-49.906c15.559 15.293 34.738 25.035 56.008 25.035 21.27 0 40.449-9.7422 56.008-25.031zm43.363-58.586h-46.801l-0.089844-0.38281c8.0508-9.7812 14.828-21.105 20.051-33.234 2.3906 1.2461 4.9648 2.0977 7.6758 2.4844 1.125 0.15625 2.2539 0.24219 3.3789 0.24219 5.582 0 11.008-2.0781 15.785-5.8203zm3.1094-61.641c-0.89844 6.3477-3.6992 11.996-7.875 15.898-3.8789 3.625-8.4766 5.293-12.98 4.6289-1.9102-0.26953-3.6953-1.0234-5.3594-2.0586 5.0312-14.281 7.9258-29.328 8.2578-44.023 1.2031-0.14844 2.4219-0.14844 3.6484 0.027344 4.4922 0.63672 8.457 3.5 11.172 8.0625 2.9219 4.9141 4.0391 11.117 3.1367 17.465zm-114.24 28.566c14.996 0 26.309 7.1445 26.309 16.613 0 2.7852-2.2539 5.0391-5.0391 5.0391-2.7852 0-5.0391-2.2539-5.0391-5.0391 0-2.3086-6.1641-6.5391-16.23-6.5391-10.07 0-16.234 4.2305-16.234 6.5391 0 2.7852-2.2539 5.0391-5.0391 5.0391-2.7812 0-5.0391-2.2539-5.0391-5.0391 0-9.4688 11.312-16.613 26.312-16.613zm-30.355-44.078c0 8.7266-5.3828 15.309-12.527 15.309-7.1406 0-12.531-6.582-12.531-15.309 0-8.7266 5.3867-15.305 12.531-15.305 7.1406 0 12.527 6.5781 12.527 15.305zm60.707 0c0-8.7266 5.3828-15.305 12.527-15.305 7.1406 0 12.531 6.5781 12.531 15.305 0 8.7266-5.3906 15.309-12.531 15.309s-12.527-6.582-12.527-15.309z"/>
</svg>