<?xml version="1.0" encoding="UTF-8"?>
<!-- Uploaded to: SVG Find, www.svgrepo.com, Generator: SVG Find Mixer Tools -->
<svg fill="#000000" width="800px" height="800px" version="1.1" viewBox="144 144 512 512" xmlns="http://www.w3.org/2000/svg">
 <g>
  <path d="m555.73 346.45c1.6211 1.4492 4.1094 1.3047 5.5547-0.31641 6.4844-7.293 9.2188-17.18 7.4102-26.766-1.8125-9.5898-7.9648-17.797-16.664-22.219-8.6953-4.4258-18.949-4.5703-27.766-0.39062-1.9414 0.94531-2.7539 3.2773-1.8281 5.2266 0.92578 1.9492 3.2461 2.7891 5.207 1.8828 3.1602-1.5039 6.6172-2.2812 10.117-2.2734 6.1055 0 11.973 2.3594 16.371 6.5898 4.3984 4.2305 6.9883 10 7.2266 16.098s-1.8945 12.051-5.9492 16.613c-0.69531 0.77734-1.0508 1.8008-0.99219 2.8438 0.0625 1.043 0.53125 2.0195 1.3125 2.7109z"/>
  <path d="m562.12 364.97c0.78906 0 1.5625-0.24219 2.2148-0.69141 12.41-8.4414 20.066-22.277 20.633-37.277 0.56641-14.996-6.0312-29.371-17.77-38.727-11.734-9.3516-27.219-12.574-41.715-8.6719-14.492 3.8984-26.27 14.449-31.73 28.43-0.79297 2.0273 0.21094 4.3086 2.2344 5.0977 2.0234 0.79297 4.3086-0.20703 5.0977-2.2344 4.5547-11.645 14.375-20.43 26.449-23.676 12.078-3.2422 24.977-0.55859 34.754 7.2383 9.7773 7.793 15.273 19.77 14.801 32.266-0.47266 12.496-6.8516 24.027-17.188 31.062-1.4219 0.97266-2.0469 2.7617-1.5352 4.4102 0.50781 1.6484 2.0312 2.7734 3.7578 2.7734z"/>
  <path d="m565.61 381.23c0.64844 0 1.2852-0.16406 1.8555-0.46875 18.668-9.9883 31.066-28.688 33.004-49.766 1.9375-21.082-6.8438-41.727-23.375-54.953-16.527-13.223-38.598-17.258-58.738-10.738-20.141 6.5195-35.66 22.719-41.309 43.121-0.27734 1.0078-0.14453 2.082 0.37109 2.9883 0.51563 0.91016 1.3711 1.5742 2.3789 1.8516 2.0938 0.58203 4.2617-0.64844 4.8398-2.7461 4.9414-17.852 18.523-32.027 36.148-37.727 17.625-5.7031 36.934-2.1719 51.398 9.4023 14.465 11.574 22.145 29.637 20.449 48.082-1.6992 18.449-12.551 34.809-28.883 43.547-1.5898 0.85156-2.3984 2.6758-1.957 4.4297 0.4375 1.75 2.0156 2.9766 3.8203 2.9766z"/>
  <path d="m569.01 397.1c0.57031 0 1.1289-0.125 1.6445-0.36328 24.699-11.367 41.781-34.676 45.184-61.652 3.4023-26.973-7.3516-53.797-28.453-70.945-21.098-17.145-49.555-22.191-75.262-13.344-25.711 8.8477-45.035 30.332-51.113 56.836-0.23047 1.0156-0.050781 2.0859 0.50391 2.9688 0.55469 0.88281 1.4414 1.5117 2.457 1.7422 2.1211 0.48438 4.2305-0.84375 4.7148-2.9609 5.4688-23.855 22.863-43.199 46.004-51.164 23.145-7.9648 48.758-3.4219 67.75 12.016 18.992 15.438 28.676 39.582 25.605 63.863-3.0664 24.281-18.445 45.262-40.68 55.488-1.6836 0.77344-2.6016 2.6133-2.2031 4.4219 0.39453 1.8086 2 3.0938 3.8477 3.0938z"/>
  <path d="m448.33 310.55c2.1289 0.44531 4.2109-0.92188 4.6523-3.0469 6.2109-29.719 27.531-54.012 56.188-64.031 28.66-10.02 60.473-4.3008 83.844 15.07 23.375 19.375 34.898 49.57 30.371 79.59-4.5273 30.02-24.445 55.477-52.492 67.094-0.97656 0.39063-1.7578 1.1562-2.168 2.125-0.40625 0.97266-0.41016 2.0625-0.007812 3.0352 0.40234 0.97266 1.1758 1.7422 2.1523 2.1406 0.97266 0.39844 2.0664 0.38672 3.0352-0.027344 30.598-12.672 52.324-40.445 57.262-73.195 4.9375-32.746-7.6328-65.691-33.133-86.824-25.5-21.133-60.203-27.367-91.469-16.438-31.262 10.934-54.516 37.438-61.289 69.859-0.4375 2.125 0.92578 4.207 3.0547 4.6484z"/>
  <path d="m553.23 387.04c1.3125-1.4922 2.3203-3.2305 2.957-5.1172 1.2539-3.5781 0.90625-7.5195-0.94922-10.824-1.2773-2.2461-3.1953-4.0547-5.5117-5.1992 2.1367-3.0195 2.9688-6.7695 2.3047-10.406-0.66797-3.6406-2.7695-6.8555-5.8359-8.9219 4.6523-3.918 5.8398-11.086 2.4883-17-3.3516-5.9141-10.117-8.5781-15.871-6.5938-0.25-4.7656-2.9492-9.0586-7.1367-11.348-4.1836-2.2891-9.2578-2.2422-13.402 0.12109l-19.996 11.391-104.75-15.125 1.4453-8.2422c0.74609 0.046875 1.4922 0.078125 2.2344 0.078125l-0.003907 0.007813c8.3281-0.019531 16.383-2.9609 22.758-8.3164 6.3789-5.3555 10.668-12.785 12.117-20.984l6.3203-35.918 0.003906 0.003906c4.2188 1.4492 8.5469 2.5664 12.938 3.3438l6.2695 1.0898v0.003906c2.1406 0.37109 4.1758-1.0586 4.5508-3.1992l5.2969-30.121c0.39062-2.2344 0.58594-4.5 0.58984-6.7656 0-12.508-5.9883-24.262-16.105-31.617-10.121-7.3594-23.148-9.4297-35.047-5.5703l-19.473 6.3125c-6.7266-4.1406-14.738-5.6797-22.52-4.3242s-14.801 5.5078-19.734 11.68c-4.9297 6.1719-7.4336 13.934-7.0391 21.824l1.7773 42.625c0.066406 3.8945 1.2891 7.6797 3.5078 10.883 2.2188 3.1992 5.3359 5.6719 8.957 7.1055l-7.9688 45.316-121.1-16.699c-6.9375-1.0312-14.02-0.44922-20.695 1.6992-0.60547 0.20313-1.207 0.41797-1.8047 0.64453-11.219 4.2734-20.281 12.828-25.191 23.785-4.9102 10.953-5.2695 23.41-0.99609 34.629l35.512 93.227-11.816 195.41c-0.13281 2.168 1.5195 4.0352 3.6914 4.168 0.082032 0 0.16016 0.007812 0.24219 0.007812v-0.003906c2.0781 0 3.8008-1.6211 3.9258-3.6992l10.77-178.02 34.242 89.898v0.003906c6.1328 16.094 17.809 29.469 32.926 37.719s32.68 10.832 49.535 7.2812c16.852-3.5508 31.879-13 42.383-26.648l109.36-142.12 56.969-32.535 21.34 84.168-65.141 18.465 3.6914-57.965v0.003906c0.082031-1.0508-0.26172-2.0898-0.95312-2.8867-0.6875-0.79687-1.6719-1.2812-2.7227-1.3477-1.0508-0.066406-2.0859 0.28906-2.8711 0.99219-0.78516 0.70312-1.2578 1.6914-1.3086 2.7422l-12.719 199.77c-0.066406 1.0391 0.28516 2.0664 0.97656 2.8516 0.6875 0.78125 1.6602 1.2578 2.7031 1.3242 0.085938 0 0.17188 0.007812 0.25391 0.007812 2.0742 0 3.793-1.6133 3.9258-3.6836l6.1992-97.293 24.402 97.992c0.4375 1.7539 2.0078 2.9844 3.8125 2.9844 0.32031 0 0.64063-0.039062 0.95313-0.11719 1.0156-0.25 1.8867-0.89453 2.4219-1.7891 0.53906-0.89453 0.69922-1.9688 0.44531-2.9805l-30.387-122.03 0.65234-10.234 67.602-19.168 38.875 153.35c0.53516 2.1094 2.6758 3.3828 4.7852 2.8516 2.1055-0.53516 3.3828-2.6758 2.8477-4.7852zm-72.039-57.582-22.449 12.793-4.9023-16.836v-0.011718zm-131.2-132.52c-0.31641-6.1523 1.6953-12.191 5.6328-16.926 3.9414-4.7305 9.5156-7.8086 15.621-8.6133 6.1055-0.80469 12.289 0.71875 17.32 4.2656 1.0117 0.71484 2.3047 0.91016 3.4805 0.52734l21.273-6.8984h0.003906c9.5039-3.0781 19.906-1.4219 27.984 4.4531 8.082 5.875 12.863 15.262 12.863 25.25 0 1.8125-0.16016 3.625-0.46875 5.4141l-4.6133 26.238-2.3906-0.41797c-5.4453-0.96484-10.777-2.5078-15.895-4.6016h-0.011719c-13.375-5.4609-24.934-14.586-33.348-26.328-0.74219-1.0273-1.9297-1.6367-3.1953-1.6367-0.29688 0-0.58984 0.03125-0.87891 0.097657-1.543 0.35156-2.7227 1.5938-3 3.1523-1.3867 7.9766-5.3242 15.281-11.215 20.828-0.98828 0.92969-2.0234 1.8086-3.1016 2.625-3.5117-2.8789-7.918-4.4531-12.461-4.4531-4.543 0-8.9453 1.5742-12.461 4.4531zm1.1602 114.55c2.0781 0.25 3.9883-1.168 4.3555-3.2266l9.2305-52.488c0.375-2.1406-1.0547-4.1797-3.1953-4.5547-3.793-0.66797-7.0234-3.1406-8.6562-6.6289-1.6289-3.4883-1.457-7.5547 0.46484-10.891 1.918-3.3398 5.3477-5.5312 9.1836-5.8711 3.8359-0.34375 7.5977 1.207 10.078 4.1523 1.2695 1.5078 3.4609 1.8477 5.125 0.79297 8.3984-5.3398 14.816-13.289 18.27-22.625 7.9727 9.1797 17.84 16.527 28.922 21.539l-6.6016 37.508v-0.003906c-1.4375 8.1719-6.4766 15.262-13.727 19.301-7.2461 4.0391-15.926 4.5977-23.633 1.5195-0.97266-0.40234-2.0664-0.40234-3.0352 0.007812-0.97266 0.40625-1.7422 1.1875-2.1328 2.1641-0.39063 0.98047-0.37109 2.0742 0.050781 3.0391s1.2109 1.7227 2.1953 2.0977c1.0352 0.41406 2.0938 0.77344 3.1719 1.0898l-2.1641 12.328c-0.1875 1.0625 0.070312 2.1562 0.71484 3.0234 0.64062 0.86719 1.6133 1.4336 2.6836 1.5625l15.652 1.9141c-2.543 9.9805-9.8047 18.09-19.445 21.711-9.6445 3.6211-20.449 2.2969-28.934-3.543-8.4805-5.8398-13.574-15.461-13.633-25.762zm-164.36 4.3867c4.0352-9.0664 11.527-16.141 20.812-19.648 0.49609-0.1875 0.99609-0.36719 1.4961-0.53516h-0.003906c5.5234-1.7617 11.379-2.2344 17.113-1.375l102.04 14.301c-0.007812 0.28516-0.027344 0.56641-0.027344 0.85156v-0.003906c-0.003906 13.012 6.418 25.184 17.164 32.52s24.422 8.8906 36.539 4.1484c12.113-4.7422 21.105-15.164 24.016-27.844l23.789 3.5273c-1.4258 2.1836-2.1875 4.7344-2.1836 7.3398v34.426l-98.008 125.58-50.582-132.79c-0.77344-2.0312-3.0469-3.0508-5.082-2.2734-2.0312 0.77344-3.0508 3.0469-2.2734 5.0781l29.598 77.691-69.297 28.176-45.93-120.57c-3.5547-9.2617-3.2578-19.562 0.82422-28.605zm298 102.19c-0.45313 0.26172-0.84766 0.60547-1.1641 1.0195l-109.85 142.75c-9.3594 12.16-22.754 20.582-37.77 23.746-15.016 3.1641-30.672 0.86328-44.141-6.4883-13.473-7.3516-23.875-19.27-29.34-33.613l-27.836-73.07 69.293-28.176 20.676 54.27c0.50391 1.3281 1.6875 2.2812 3.0898 2.4922 1.4062 0.21094 2.8164-0.35156 3.6914-1.4688l103.13-132.15c0.53906-0.69141 0.83203-1.5469 0.83203-2.4219v-35.789c0.003906-2.7578 2.0312-5.0938 4.7617-5.4805 2.7266-0.39062 5.3281 1.2852 6.0977 3.9336l6.2969 21.621h0.003906c0.33594 1.1562 1.1836 2.0938 2.3008 2.5469 1.1172 0.45312 2.3789 0.36719 3.4258-0.22656l57.859-32.957c1.3633-0.79297 2.9844-1.0078 4.5078-0.59766 1.5234 0.41406 2.8164 1.418 3.5938 2.7891 0.77734 1.3711 0.97266 2.9961 0.54688 4.5156-0.42969 1.5156-1.4453 2.8008-2.8281 3.5625l-30.82 17.465h0.003906c-1.8945 1.0742-2.5586 3.4766-1.4844 5.3672 1.0703 1.8906 3.4727 2.5547 5.3633 1.4844l39.676-22.484c2.3164-1.3164 5.5117-0.078124 7.1172 2.7539s1.0234 6.207-1.293 7.5195l-0.29688 0.16406-46.234 26.195c-1.8906 1.0742-2.5547 3.4766-1.4844 5.3672 1.0703 1.8906 3.4727 2.5547 5.3672 1.4844l37.676-21.352c2.832-1.5586 6.3906-0.54688 7.9844 2.2656 1.5898 2.8164 0.62109 6.3867-2.1719 8.0117l-37.668 21.348c-1.8906 1.0703-2.5547 3.4727-1.4844 5.3633 1.0703 1.8906 3.4727 2.5547 5.3633 1.4844l31.785-18.012c3.3594-1.8984 7.3984-1.1445 9 1.6836 0.74219 1.3672 0.86328 2.9844 0.33203 4.4453-0.62109 1.7734-1.8789 3.2539-3.5273 4.1523z"/>
  <path d="m394.11 264.93 12.594 2.2148c0.22656 0.042968 0.45703 0.0625 0.6875 0.0625 1.9102-0.003907 3.543-1.375 3.875-3.2539l3.4102-19.387h-0.003906c0.37891-2.1406-1.0508-4.1836-3.1914-4.5586-2.1406-0.37891-4.1836 1.0547-4.5586 3.1953l-2.7266 15.508-8.7227-1.5352c-2.1406-0.37109-4.1719 1.0586-4.5508 3.1992-0.375 2.1367 1.0508 4.1758 3.1875 4.5547z"/>
  <path d="m380.72 278.57 19.387 3.4102-0.003907-0.003906c0.22656 0.042969 0.45703 0.0625 0.6875 0.0625 2.043-0.003906 3.7461-1.5625 3.9219-3.5977 0.17578-2.0312-1.2344-3.8633-3.2422-4.2148l-19.387-3.4102c-2.1367-0.37109-4.1719 1.0586-4.5469 3.1953-0.37891 2.1367 1.0469 4.1758 3.1836 4.5586z"/>
  <path d="m537.76 309.47c-2.1719 0-3.9336 1.7656-3.9336 3.9375s1.7617 3.9375 3.9336 3.9375c2.9883-0.011719 5.7227 1.6797 7.0469 4.3594 0.46484 0.94141 1.2812 1.6602 2.2773 1.9961 0.99219 0.33594 2.0781 0.26172 3.0195-0.20703 0.9375-0.47266 1.6484-1.2969 1.9766-2.293 0.32812-0.99609 0.24609-2.082-0.23047-3.0156-1.3008-2.625-3.3086-4.832-5.7969-6.3711-2.4922-1.5391-5.3633-2.3516-8.293-2.3438z"/>
 </g>
</svg>