<?xml version="1.0" encoding="UTF-8"?>
<!-- Uploaded to: SVG Find, www.svgrepo.com, Generator: SVG Find Mixer Tools -->
<svg width="800px" height="800px" version="1.1" viewBox="144 144 512 512" xmlns="http://www.w3.org/2000/svg">
 <defs>
  <clipPath id="a">
   <path d="m148.09 148.09h503.81v503.81h-503.81z"/>
  </clipPath>
 </defs>
 <path d="m340.48 488.16c-39.148-6.4023-45.445-9.0273-45.445 16.793 0 45.027 10.496 104.96 104.96 104.96s104.96-59.934 104.96-104.96c-0.003907-49.223-31.488 5.0391-164.48-16.793zm59.516 100.76c-73.473 0-83.969-39.887-83.969-83.234 6.1914 0.73438 13.539 1.9961 20.992 3.2539 79.453 13.016 89.426 3.5703 146.95-3.2539-0.003906 43.352-10.496 83.234-83.969 83.234z"/>
 <g clip-path="url(#a)">
  <path d="m617.69 307.74c-29.598 0-61.402 55.418-104.96 13.227-5.1719-4.957-11.883-8.0039-19.02-8.6328-7.1367-0.62891-14.273 1.1914-20.234 5.168l-6.1914 4.1992c-26.238-52.48-25.086-45.027-25.086-104.23-0.21094-26.449-12.914-69.379-42.195-69.379-29.285 0-41.984 43.348-41.984 69.379 0 58.988 0.94531 52.48-24.98 104.23l-6.5078-4.3047c-5.9961-3.9727-13.168-5.7773-20.328-5.1094-7.1602 0.66797-13.879 3.7695-19.031 8.7812-27.922 26.977-50.801 15.957-86.594-7.6602-5.0977-3.4492-11.051-5.4219-17.203-5.7031-6.1484-0.27734-12.254 1.1523-17.645 4.1289-7.5 4.1836-13.152 11.039-15.836 19.199-2.6797 8.1562-2.1953 17.027 1.3594 24.848 3.5586 7.8164 9.9219 14.012 17.836 17.355 40.738 16.68 75.16 45.812 98.348 83.234-9.3398 10.496-13.855 26.238-13.855 48.492 0 93.414 53.531 146.95 146.95 146.95 93.414 0 146.95-53.531 146.95-146.95 0-22.25-4.5117-38.207-13.855-48.492 23.188-37.422 57.609-66.555 98.348-83.234 9.6797-4.293 16.824-12.82 19.355-23.102 2.5312-10.277 0.16406-21.152-6.418-29.445-6.5781-8.293-16.625-13.074-27.211-12.949zm-217.69 323.17c-57.414 0-125.95-21.832-125.95-125.95 0-48.598 20.992-45.449 69.797-37.473v0.003906c37.012 7.9766 75.297 7.9766 112.31 0 48.805-8.082 69.797-10.496 69.797 37.469 0 104.12-68.539 125.95-125.95 125.95zm-59.41-199.42c13.473-7.9336 25.332-18.328 34.953-30.648 6.082-7.2031 15.031-11.355 24.457-11.355s18.371 4.1523 24.453 11.355c9.5586 12.379 21.43 22.789 34.953 30.648 0.39844 5.1094-0.73438 10.227-3.2539 14.691-51.117 8.3984-61.191 8.3984-112.31 0-2.5195-4.4648-3.6523-9.582-3.2539-14.691zm282.66-77.566h0.003906c-44.602 18.305-82.312 50.18-107.8 91.105-11.75-3.2422-24.055-3.9609-36.105-2.1016 3.7773-16.582-1.9961-26.555-11.652-31.488-27.184-13.539-28.863-42.926-67.695-42.926-38.836 0-40.199 29.18-67.594 43.035-9.7617 4.8281-15.535 14.906-11.754 31.488l-0.003906-0.003906c-12.047-1.8594-24.355-1.1445-36.105 2.1016-25.469-40.965-63.18-72.879-107.8-91.211-4.5195-2.1289-7.4531-6.6211-7.5898-11.613-0.13281-4.9961 2.5625-9.6406 6.9609-12.004 4.1992-2.3555 9.3711-2.1094 13.332 0.62891 42.719 28.129 75.258 41.039 112.31 5.3516l-0.003906 0.003906c2-1.9297 4.6797-2.9844 7.4531-2.9414-1.3086 12.645 1.7656 25.355 8.7109 36.004 3.3594 4.7227 1.8906 26.137-28.652 10.496-5.1602-2.5938-11.445-0.53125-14.066 4.6172-7.3477 14.695 20.992 21.727 32.539 21.727 7.7266 0.10547 15.227-2.582 21.125-7.5742 5.8945-4.9883 9.7891-11.945 10.961-19.582 1.1719-7.6328-0.45703-15.438-4.5859-21.965-2.9492-4.4531-4.7188-9.582-5.1445-14.906 19.734 2.625 24.664-17.32 36.633-41.984 26.449-52.48-2.3086-85.859 25.82-127.84 1.7617-2.3789 4.5469-3.7773 7.5039-3.7773 2.9609 0 5.7422 1.3984 7.5039 3.7773 16.164 24.98 13.438 45.449 13.438 76.938 0 31.488 11.441 50.066 27.289 81.867 1.9727 3.9062 5.1172 7.1016 8.9922 9.1328 3.8789 2.0352 8.293 2.8047 12.629 2.2031-0.42188 5.3242-2.1914 10.453-5.1445 14.902-15.113 21.938 4.5117 66.965 55.418 41.461h0.003907c4.707-2.8359 6.4336-8.8242 3.9531-13.73-2.4805-4.9062-8.3242-7.0664-13.402-4.9531-12.805 6.4023-22.672 7.1367-26.977 2.2031h0.003906c-2.9102-3.6992-3.5547-8.6953-1.6797-13.012 6.9453-10.648 10.023-23.359 8.7109-36.004 2.75-0.015625 5.4102 0.99219 7.4531 2.8359 37.051 35.793 69.695 22.777 112.31-5.3516v-0.003906c4.0664-2.6055 9.2344-2.7891 13.477-0.46875 4.2422 2.3164 6.8828 6.7617 6.8828 11.598 0.042969 5.1523-2.9648 9.8438-7.6602 11.965z"/>
 </g>
</svg>